<?xml version="1.0" encoding="UTF-8"?>
<!DOCTYPE svg PUBLIC "-//W3C//DTD SVG 1.1//EN" "http://www.w3.org/Graphics/SVG/1.1/DTD/svg11.dtd">
<!-- Creator: CorelDRAW 2021 (64-Bit) -->
<svg xmlns="http://www.w3.org/2000/svg" xml:space="preserve" width="260px" height="354px" version="1.1" style="shape-rendering:geometricPrecision; text-rendering:geometricPrecision; image-rendering:optimizeQuality; fill-rule:evenodd; clip-rule:evenodd"
viewBox="0 0 260 354.55"
 xmlns:xlink="http://www.w3.org/1999/xlink"
 xmlns:xodm="http://www.corel.com/coreldraw/odm/2003">
 <defs>
  <style type="text/css">
   <![CDATA[
    .fil0 {fill:#FF6600}
   ]]>
  </style>
 </defs>
 <g id="Слой_x0020_1">
  <metadata id="CorelCorpID_0Corel-Layer"/>
  <g id="_1939778267040">
   <path class="fil0" d="M108.83 306.21l-0.39 -0.39c-1.55,-1.55 -3.65,-2.43 -5.84,-2.46l-0.13 0c-0.01,0 -0.01,0 -0.02,0 -2.23,0 -4.37,0.89 -5.95,2.47l-19.33 19.31c-1.59,1.59 -2.48,3.74 -2.48,5.98 0,2.24 0.89,4.4 2.48,5.98l0.39 0.39c1.58,1.57 3.72,2.46 5.96,2.46 0,0 0.01,0 0.01,0l0.14 0c2.19,-0.03 4.28,-0.91 5.83,-2.46l19.33 -19.32c1.59,-1.58 2.48,-3.74 2.48,-5.98 0,-2.25 -0.89,-4.4 -2.48,-5.98z"/>
   <path class="fil0" d="M93.05 290.78c-1.6,-1.6 -3.77,-2.51 -6.03,-2.53l-0.13 0c-0.01,0 -0.02,0 -0.03,0 -2.3,0 -4.51,0.91 -6.14,2.54l-21.06 21.06c-1.63,1.63 -2.55,3.85 -2.55,6.16 0,4.81 3.9,8.71 8.71,8.71 0,0 0,0 0,0l0.14 0c2.27,-0.03 4.44,-0.94 6.04,-2.54l21.05 -21.06c1.63,-1.63 2.55,-3.86 2.55,-6.17 0,-2.31 -0.92,-4.53 -2.55,-6.17l0 0z"/>
   <path class="fil0" d="M72.14 281.21c-1.6,-1.6 -3.76,-2.52 -6.03,-2.54l-0.14 0c0,-0.01 -0.01,-0.01 -0.01,-0.01 -2.31,0 -4.52,0.92 -6.15,2.55l-15.72 15.72c-1.64,1.63 -2.55,3.85 -2.55,6.16 0,4.81 3.9,8.71 8.71,8.71 0,0 0.01,0 0.01,0l0.13 0.01c2.26,-0.03 4.43,-0.95 6.03,-2.54l15.72 -15.72c1.63,-1.64 2.55,-3.86 2.55,-6.17 0,-2.32 -0.92,-4.54 -2.55,-6.18l0 0.01z"/>
   <path class="fil0" d="M207.25 290.53l-59.8 -45.76c-18.84,6.73 -32.41,7.32 -40.38,1.79 -3.9,-2.67 -6.35,-7.02 -6.59,-11.74 -0.01,-0.08 -0.01,-0.15 -0.01,-0.23 0,-0.07 0,-0.15 0.01,-0.22 -7.66,-2.03 -14.42,-6.62 -19.14,-12.99 -5.31,-6.95 -8.44,-15.86 -8.23,-23.22l-0.01 -192.14 -69.22 0 0 192.18c0,36.51 14.48,67.92 40.85,88.78l10.43 -10.43c2.86,-2.87 6.76,-4.49 10.82,-4.49 6.76,0 12.71,4.44 14.65,10.92 1.96,-0.87 4.08,-1.33 6.23,-1.33 0.01,0 0.02,0 0.03,0 0,0 0.01,0 0.02,0 8.37,0 15.19,6.76 15.26,15.13l0.3 0c0.02,0 0.04,0 0.06,0 3.96,0 7.76,1.58 10.56,4.39l0.39 0.39c2.81,2.8 4.39,6.62 4.39,10.59 0,0.41 -0.01,0.82 -0.05,1.22l0.42 0c0.02,0 0.04,0 0.06,0 3.9,0 7.65,1.56 10.41,4.33l0.7 0.7c2.77,2.78 4.32,6.55 4.32,10.47 0,3.89 -1.53,7.63 -4.26,10.41l13.3 8.65 0.13 0.09c1.4,1.05 3.1,1.62 4.85,1.62 4.45,0 8.05,-3.6 8.05,-8.05 0,-2.52 -1.18,-4.9 -3.2,-6.42l-21.5 -16.03c-0.88,-0.61 -1.41,-1.63 -1.41,-2.71 0,-1.81 1.47,-3.29 3.29,-3.29 0.75,0 1.47,0.26 2.06,0.73l21.45 15.98 0.04 0 0.08 0.05 7.95 6.01c1.36,0.96 2.99,1.48 4.65,1.48 4.44,0 8.04,-3.6 8.04,-8.04 0,-2.12 -0.83,-4.15 -2.32,-5.66l-37.04 -26.86c-0.93,-0.61 -1.48,-1.64 -1.48,-2.75 0,-1.82 1.47,-3.29 3.29,-3.29 0.74,0 1.47,0.25 2.05,0.71l3.8 2.77c0.41,0.1 0.79,0.27 1.12,0.52l31.39 22.92 0.06 0.04c0.38,0.29 0.71,0.6 1.08,0.91l2.05 1.49c1.33,0.9 2.9,1.38 4.51,1.38 4.44,0 8.04,-3.6 8.04,-8.04 0,-2.41 -1.08,-4.69 -2.94,-6.21l-35.65 -26.16c-0.29,-0.22 -0.55,-0.49 -0.75,-0.79l-7.03 -5.1c-0.8,-0.62 -1.27,-1.58 -1.27,-2.59 0,-1.82 1.47,-3.29 3.29,-3.29 0.65,0 1.29,0.19 1.83,0.55l46.34 33.53c1.39,1.03 3.08,1.59 4.81,1.59 4.44,0 8.04,-3.6 8.04,-8.04 0,-2.55 -1.21,-4.94 -3.24,-6.45l0.02 0z"/>
   <path class="fil0" d="M186.71 6.02l0 192.18c0,0.27 0.01,0.56 0.01,0.83 0,7.17 -1.28,14.29 -3.75,21.02l0.47 0 12.47 -5.31c0.39,-0.15 0.79,-0.22 1.2,-0.22 1.82,0 3.29,1.47 3.29,3.29 0,1.28 -0.75,2.45 -1.91,2.99l-13.12 5.58c-0.4,0.17 -0.83,0.26 -1.27,0.26 0,0 -0.01,0 -0.01,0 -0.11,0 -2.44,0 -5.83,-0.24 -0.07,0.01 -0.14,0.01 -0.21,0.01 -0.21,0 -0.41,-0.02 -0.62,-0.06l-0.21 0c-5.51,-0.42 -13.29,-1.44 -18.99,-3.9 -9.43,-4.04 -14.56,-5.27 -20.05,-1.86 -1.41,0.86 -2.99,1.79 -4.68,2.75 -0.21,0.21 -0.45,0.38 -0.71,0.52 -11.32,6.29 -17.28,9.18 -20.52,10.51 -1.93,0.95 -3.6,1.76 -4.83,2.35 0.64,1.86 1.88,3.45 3.52,4.53 8.35,5.62 26.1,0.37 35.93,-3.27 0.37,-0.13 0.76,-0.2 1.15,-0.2 0.72,0 1.42,0.24 2,0.68l61.2 46.85c1.09,0.84 2.07,1.84 2.89,2.95 14.78,-10.55 24.39,-20.31 30.86,-31.42 7.48,-12.84 10.97,-27.91 10.97,-47.41l-0.01 -203.41 -69.24 0z"/>
   <path class="fil0" d="M124.06 322.34c-1.51,-1.5 -3.55,-2.36 -5.68,-2.39l-0.14 0c0,0 -0.01,0 -0.01,0 -2.18,0 -4.26,0.86 -5.8,2.4l-13.13 13.12c-1.53,1.54 -2.39,3.64 -2.39,5.81 0,2.18 0.86,4.27 2.39,5.82l0.71 0.7c1.54,1.53 3.62,2.4 5.8,2.4 0,0 0.01,0 0.01,0l0.14 0c2.13,-0.03 4.16,-0.89 5.67,-2.39l13.13 -13.1c1.53,-1.55 2.4,-3.64 2.4,-5.81 0,-2.18 -0.87,-4.27 -2.4,-5.82l-0.7 -0.74z"/>
  </g>
 </g>
</svg>
