<?xml version="1.0" encoding="UTF-8"?>
<!DOCTYPE svg PUBLIC "-//W3C//DTD SVG 1.1//EN" "http://www.w3.org/Graphics/SVG/1.1/DTD/svg11.dtd">
<!-- Creator: CorelDRAW 2021 (64-Bit) -->
<svg xmlns="http://www.w3.org/2000/svg" xml:space="preserve" width="307px" height="354px" version="1.1" style="shape-rendering:geometricPrecision; text-rendering:geometricPrecision; image-rendering:optimizeQuality; fill-rule:evenodd; clip-rule:evenodd"
viewBox="0 0 307 354.23"
 xmlns:xlink="http://www.w3.org/1999/xlink"
 xmlns:xodm="http://www.corel.com/coreldraw/odm/2003">
 <defs>
  <style type="text/css">
   <![CDATA[
    .fil0 {fill:#336699;fill-rule:nonzero}
   ]]>
  </style>
 </defs>
 <g id="Слой_x0020_1">
  <metadata id="CorelCorpID_0Corel-Layer"/>
  <g>
   <path class="fil0" d="M242.68 94.61l-31.94 0 0 0 -0.08 -3.01 -0.22 -2.96 -0.37 -2.91 -0.51 -2.86 -0.65 -2.81 -0.78 -2.76 -0.92 -2.69 -1.04 -2.64 -1.16 -2.57 -1.28 -2.51 -1.4 -2.43 -1.52 -2.37 -1.62 -2.28 -1.73 -2.19 -1.83 -2.12 -1.93 -2.02 -2.02 -1.93 -2.12 -1.83 -2.19 -1.73 -2.28 -1.62 -2.37 -1.52 -2.43 -1.4 -2.51 -1.28 -2.57 -1.16 -2.64 -1.04 -2.69 -0.91 -2.76 -0.79 -2.81 -0.65 -2.86 -0.51 -2.91 -0.37 -2.96 -0.22 -3.01 -0.08 0 -31.94 4.62 0.12 4.57 0.35 4.51 0.57 4.44 0.79 4.37 1.01 4.28 1.22 4.19 1.41 4.1 1.62 3.99 1.8 3.89 2 3.78 2.17 3.65 2.34 3.53 2.51 3.4 2.68 3.27 2.82 3.13 2.98 2.98 3.13 2.83 3.27 2.67 3.4 2.51 3.53 2.34 3.66 2.17 3.77 2 3.89 1.8 3.99 1.62 4.1 1.42 4.19 1.21 4.29 1.01 4.36 0.79 4.44 0.57 4.51 0.35 4.57 0.12 4.62 0 0zm-90.11 90.11l0 -31.94 0 0 3.01 -0.08 2.96 -0.22 2.91 -0.37 2.86 -0.51 2.81 -0.65 2.76 -0.78 2.69 -0.92 2.64 -1.04 2.57 -1.16 2.51 -1.28 2.43 -1.4 2.37 -1.52 2.28 -1.62 2.19 -1.73 2.12 -1.83 2.02 -1.93 1.93 -2.02 1.83 -2.12 1.73 -2.19 1.62 -2.28 1.52 -2.37 1.4 -2.43 1.28 -2.51 1.16 -2.57 1.04 -2.64 0.92 -2.69 0.78 -2.76 0.65 -2.81 0.51 -2.86 0.37 -2.91 0.22 -2.96 0.08 -3.01 31.94 0 -0.12 4.62 -0.35 4.57 -0.57 4.51 -0.79 4.44 -1.01 4.36 -1.21 4.29 -1.42 4.19 -1.62 4.1 -1.8 3.99 -2 3.89 -2.17 3.78 -2.34 3.65 -2.51 3.53 -2.67 3.4 -2.83 3.27 -2.98 3.13 -3.13 2.98 -3.27 2.83 -3.4 2.67 -3.53 2.51 -3.65 2.34 -3.78 2.17 -3.89 2 -3.99 1.8 -4.1 1.62 -4.19 1.41 -4.28 1.22 -4.37 1.01 -4.44 0.79 -4.51 0.57 -4.57 0.35 -4.62 0.12 0 0zm-90.11 -90.11l31.94 0 0 0 0.08 3.01 0.22 2.96 0.37 2.91 0.51 2.86 0.65 2.81 0.79 2.76 0.91 2.69 1.04 2.64 1.16 2.57 1.28 2.51 1.4 2.43 1.52 2.37 1.62 2.28 1.73 2.19 1.83 2.12 1.93 2.02 2.02 1.93 2.12 1.83 2.19 1.73 2.28 1.62 2.37 1.52 2.43 1.4 2.51 1.28 2.57 1.16 2.64 1.04 2.69 0.92 2.76 0.78 2.81 0.65 2.86 0.51 2.91 0.37 2.96 0.22 3.01 0.08 0 31.94 -4.62 -0.12 -4.57 -0.35 -4.51 -0.57 -4.44 -0.79 -4.36 -1.01 -4.29 -1.22 -4.19 -1.41 -4.1 -1.62 -3.99 -1.8 -3.89 -2 -3.77 -2.17 -3.66 -2.34 -3.53 -2.51 -3.4 -2.67 -3.27 -2.83 -3.12 -2.98 -2.99 -3.13 -2.82 -3.27 -2.68 -3.4 -2.51 -3.53 -2.34 -3.65 -2.17 -3.78 -1.99 -3.89 -1.81 -3.99 -1.62 -4.1 -1.41 -4.19 -1.22 -4.29 -1.01 -4.36 -0.79 -4.44 -0.57 -4.51 -0.35 -4.57 -0.12 -4.62 0 0zm90.11 -90.11l0 31.94 0 0 -3.01 0.08 -2.96 0.22 -2.91 0.37 -2.86 0.51 -2.81 0.65 -2.76 0.79 -2.69 0.91 -2.64 1.04 -2.57 1.16 -2.51 1.28 -2.43 1.4 -2.37 1.52 -2.28 1.62 -2.19 1.73 -2.12 1.83 -2.02 1.93 -1.93 2.02 -1.83 2.12 -1.73 2.19 -1.62 2.28 -1.52 2.37 -1.4 2.43 -1.28 2.51 -1.16 2.57 -1.04 2.64 -0.91 2.69 -0.79 2.76 -0.65 2.81 -0.51 2.86 -0.37 2.91 -0.22 2.96 -0.08 3.01 -31.94 0 0.12 -4.62 0.35 -4.57 0.57 -4.51 0.79 -4.44 1.01 -4.36 1.22 -4.29 1.41 -4.19 1.62 -4.1 1.81 -3.99 1.99 -3.89 2.17 -3.77 2.34 -3.66 2.51 -3.53 2.68 -3.4 2.82 -3.27 2.99 -3.13 3.12 -2.98 3.27 -2.82 3.4 -2.68 3.53 -2.51 3.66 -2.34 3.77 -2.17 3.89 -2 3.99 -1.8 4.1 -1.62 4.19 -1.41 4.29 -1.22 4.36 -1.01 4.44 -0.79 4.51 -0.57 4.57 -0.35 4.62 -0.12 0 0z"/>
  </g>
  <g>
   <path class="fil0" d="M279.05 353.84l-252.96 0 0 -31.94 252.96 0 15.97 15.97 -15.97 15.97zm15.97 -15.97l0 15.97 -15.97 0 15.97 -15.97zm0 -61l0 61 -31.94 0 0 -61 0 0 31.94 0zm-77.09 -45.15l0 -31.94 0 0 3.95 0.11 3.9 0.29 3.85 0.5 3.8 0.68 3.73 0.87 3.66 1.04 3.58 1.22 3.5 1.39 3.42 1.55 3.32 1.71 3.23 1.86 3.12 2 3.02 2.15 2.91 2.29 2.79 2.43 2.68 2.54 2.55 2.68 2.42 2.79 2.29 2.91 2.15 3.02 2 3.12 1.86 3.23 1.71 3.32 1.55 3.42 1.39 3.5 1.22 3.58 1.04 3.66 0.87 3.73 0.68 3.8 0.49 3.85 0.3 3.9 0.11 3.95 -31.94 0 -0.06 -2.32 -0.18 -2.29 -0.29 -2.24 -0.39 -2.21 -0.51 -2.17 -0.6 -2.13 -0.72 -2.09 -0.8 -2.04 -0.91 -1.99 -1 -1.95 -1.09 -1.89 -1.18 -1.84 -1.27 -1.78 -1.34 -1.71 -1.43 -1.64 -1.51 -1.58 -1.58 -1.51 -1.64 -1.43 -1.71 -1.34 -1.78 -1.27 -1.84 -1.18 -1.89 -1.09 -1.95 -1 -1.99 -0.91 -2.04 -0.8 -2.09 -0.72 -2.13 -0.6 -2.17 -0.51 -2.21 -0.39 -2.24 -0.29 -2.29 -0.18 -2.32 -0.06 0 0zm-130.72 -31.94l130.72 0 0 31.94 -130.72 0 0 0 0 -31.94zm-45.15 77.09l-31.93 0 0 0 0.1 -3.95 0.3 -3.9 0.49 -3.85 0.68 -3.8 0.87 -3.73 1.04 -3.66 1.22 -3.58 1.39 -3.5 1.55 -3.42 1.71 -3.32 1.86 -3.23 2 -3.12 2.15 -3.02 2.29 -2.91 2.43 -2.79 2.54 -2.68 2.68 -2.54 2.79 -2.43 2.91 -2.29 3.02 -2.15 3.12 -2 3.23 -1.86 3.32 -1.71 3.42 -1.55 3.5 -1.39 3.58 -1.22 3.66 -1.04 3.73 -0.87 3.8 -0.68 3.85 -0.5 3.9 -0.29 3.95 -0.11 0 31.94 -2.32 0.06 -2.29 0.18 -2.24 0.29 -2.21 0.39 -2.17 0.51 -2.13 0.6 -2.09 0.72 -2.04 0.8 -1.99 0.91 -1.95 1 -1.89 1.09 -1.84 1.18 -1.78 1.27 -1.71 1.34 -1.64 1.43 -1.58 1.51 -1.51 1.58 -1.43 1.64 -1.34 1.71 -1.27 1.78 -1.18 1.84 -1.09 1.89 -1 1.95 -0.91 1.99 -0.8 2.04 -0.72 2.09 -0.6 2.13 -0.51 2.17 -0.39 2.21 -0.29 2.24 -0.18 2.29 -0.06 2.32 0 0zm-31.93 61l0 -61 31.93 0 0 61 -15.97 15.97 -15.96 -15.97zm15.96 15.97l-15.96 0 0 -15.97 15.96 15.97z"/>
  </g>
 </g>
</svg>
