<?xml version="1.0" encoding="UTF-8"?>
<!DOCTYPE svg PUBLIC "-//W3C//DTD SVG 1.1//EN" "http://www.w3.org/Graphics/SVG/1.1/DTD/svg11.dtd">
<!-- Creator: CorelDRAW 2021 (64-Bit) -->
<svg xmlns="http://www.w3.org/2000/svg" xml:space="preserve" width="283px" height="354px" version="1.1" style="shape-rendering:geometricPrecision; text-rendering:geometricPrecision; image-rendering:optimizeQuality; fill-rule:evenodd; clip-rule:evenodd"
viewBox="0 0 283 353.75"
 xmlns:xlink="http://www.w3.org/1999/xlink"
 xmlns:xodm="http://www.corel.com/coreldraw/odm/2003">
 <defs>
  <style type="text/css">
   <![CDATA[
    .fil0 {fill:#336699}
    .fil1 {fill:#336699;fill-rule:nonzero}
   ]]>
  </style>
 </defs>
 <g id="Слой_x0020_1">
  <metadata id="CorelCorpID_0Corel-Layer"/>
 </g>
 <g id="Слой_x0020_1_0">
  <metadata id="CorelCorpID_1Corel-Layer"/>
 </g>
 <g id="Слой_x0020_1_1">
  <metadata id="CorelCorpID_2Corel-Layer"/>
 </g>
 <g id="Слой_x0020_1_2">
  <metadata id="CorelCorpID_3Corel-Layer"/>
 </g>
 <g id="Слой_x0020_1_3">
  <metadata id="CorelCorpID_4Corel-Layer"/>
 </g>
 <g id="Слой_x0020_1_4">
  <metadata id="CorelCorpID_5Corel-Layer"/>
 </g>
 <g id="Слой_x0020_1_5">
  <metadata id="CorelCorpID_6Corel-Layer"/>
 </g>
 <g id="Слой_x0020_1_6">
  <metadata id="CorelCorpID_7Corel-Layer"/>
 </g>
 <g id="Слой_x0020_1_7">
  <metadata id="CorelCorpID_8Corel-Layer"/>
  <g>
   <path class="fil0" d="M139.08 27.1c39.15,0 70.89,31.74 70.89,70.9 0,39.15 -31.74,70.89 -70.89,70.89 -39.16,0 -70.9,-31.74 -70.9,-70.89 0,-39.16 31.74,-70.9 70.9,-70.9z"/>
   <path id="_1" class="fil1" d="M225.24 98l-30.54 0 0 0 -0.07 -2.88 -0.22 -2.83 -0.35 -2.78 -0.49 -2.74 -0.62 -2.68 -0.75 -2.64 -0.87 -2.58 -0.99 -2.52 -1.12 -2.46 -1.22 -2.39 -1.34 -2.33 -1.45 -2.26 -1.55 -2.18 -1.65 -2.11 -1.75 -2.02 -1.85 -1.93 -1.93 -1.85 -2.03 -1.75 -2.1 -1.65 -2.18 -1.55 -2.26 -1.45 -2.33 -1.34 -2.39 -1.23 -2.46 -1.11 -2.52 -0.99 -2.58 -0.88 -2.64 -0.74 -2.68 -0.62 -2.74 -0.49 -2.78 -0.36 -2.83 -0.21 -2.88 -0.08 0 -30.54 4.42 0.11 4.37 0.34 4.31 0.55 4.24 0.75 4.18 0.97 4.09 1.16 4.01 1.36 3.92 1.54 3.82 1.73 3.72 1.9 3.61 2.08 3.49 2.24 3.38 2.4 3.26 2.56 3.12 2.7 2.98 2.85 2.86 2.99 2.7 3.12 2.56 3.26 2.4 3.37 2.24 3.5 2.07 3.61 1.91 3.72 1.73 3.82 1.54 3.92 1.36 4.01 1.16 4.09 0.96 4.17 0.76 4.25 0.55 4.31 0.33 4.37 0.11 4.42 0 0zm-86.16 86.16l0 -30.54 0 0 2.88 -0.07 2.83 -0.21 2.78 -0.36 2.74 -0.49 2.68 -0.62 2.64 -0.75 2.58 -0.87 2.52 -0.99 2.46 -1.12 2.39 -1.22 2.33 -1.34 2.26 -1.45 2.18 -1.55 2.1 -1.65 2.03 -1.75 1.93 -1.85 1.85 -1.93 1.75 -2.02 1.65 -2.11 1.55 -2.18 1.45 -2.26 1.34 -2.33 1.22 -2.39 1.12 -2.46 0.99 -2.52 0.87 -2.58 0.75 -2.64 0.62 -2.68 0.49 -2.74 0.35 -2.78 0.22 -2.83 0.07 -2.88 30.54 0 -0.11 4.42 -0.33 4.37 -0.55 4.31 -0.76 4.25 -0.96 4.17 -1.16 4.09 -1.36 4.01 -1.54 3.92 -1.73 3.82 -1.91 3.72 -2.07 3.61 -2.24 3.49 -2.4 3.38 -2.56 3.25 -2.7 3.13 -2.85 2.99 -2.99 2.85 -3.13 2.7 -3.25 2.56 -3.38 2.4 -3.49 2.24 -3.61 2.08 -3.72 1.9 -3.82 1.73 -3.92 1.54 -4.01 1.36 -4.09 1.16 -4.18 0.96 -4.24 0.76 -4.31 0.55 -4.37 0.33 -4.42 0.11 0 0zm-86.17 -86.16l30.54 0 0 0 0.08 2.88 0.21 2.83 0.36 2.78 0.49 2.74 0.62 2.68 0.74 2.64 0.88 2.58 0.99 2.52 1.11 2.46 1.23 2.39 1.34 2.33 1.45 2.26 1.55 2.18 1.65 2.11 1.75 2.02 1.85 1.93 1.93 1.85 2.02 1.75 2.11 1.65 2.18 1.55 2.26 1.45 2.32 1.34 2.4 1.22 2.46 1.12 2.52 0.99 2.58 0.87 2.63 0.75 2.69 0.62 2.74 0.49 2.78 0.36 2.83 0.21 2.88 0.07 0 30.54 -4.42 -0.11 -4.37 -0.33 -4.31 -0.55 -4.25 -0.76 -4.17 -0.96 -4.1 -1.16 -4.01 -1.36 -3.91 -1.54 -3.82 -1.73 -3.72 -1.9 -3.61 -2.08 -3.5 -2.24 -3.37 -2.4 -3.26 -2.56 -3.12 -2.7 -2.99 -2.85 -2.85 -2.99 -2.71 -3.13 -2.55 -3.25 -2.4 -3.38 -2.24 -3.49 -2.08 -3.61 -1.9 -3.72 -1.73 -3.82 -1.54 -3.92 -1.36 -4.01 -1.16 -4.09 -0.97 -4.17 -0.75 -4.25 -0.55 -4.31 -0.34 -4.37 -0.11 -4.42 0 0zm86.17 -86.17l0 30.54 0 0 -2.88 0.08 -2.83 0.21 -2.78 0.36 -2.74 0.49 -2.69 0.62 -2.63 0.74 -2.58 0.88 -2.52 0.99 -2.46 1.11 -2.4 1.23 -2.32 1.34 -2.26 1.45 -2.18 1.55 -2.11 1.65 -2.02 1.75 -1.94 1.85 -1.84 1.93 -1.75 2.02 -1.65 2.11 -1.55 2.18 -1.45 2.26 -1.34 2.32 -1.23 2.4 -1.11 2.46 -0.99 2.52 -0.88 2.58 -0.74 2.64 -0.62 2.68 -0.49 2.74 -0.36 2.78 -0.21 2.83 -0.08 2.88 -30.54 0 0.11 -4.42 0.34 -4.37 0.55 -4.31 0.75 -4.25 0.97 -4.17 1.16 -4.09 1.36 -4.02 1.54 -3.92 1.73 -3.81 1.9 -3.72 2.08 -3.61 2.24 -3.5 2.4 -3.37 2.55 -3.26 2.71 -3.12 2.85 -2.99 2.99 -2.85 3.12 -2.7 3.26 -2.56 3.37 -2.4 3.5 -2.24 3.61 -2.08 3.72 -1.9 3.82 -1.73 3.91 -1.54 4.01 -1.36 4.1 -1.16 4.17 -0.97 4.25 -0.75 4.31 -0.55 4.37 -0.34 4.42 -0.11 0 0z"/>
  </g>
  <g>
   <path class="fil0" d="M20.64 330.61l241.88 0 0 -58.33c0,-32.14 -26.3,-58.44 -58.44,-58.44l-125 0c-32.14,0 -58.44,26.3 -58.44,58.44l0 58.33z"/>
   <path id="_1_8" class="fil1" d="M262.52 345.88l-241.88 0 0 -30.54 241.88 0 15.27 15.27 -15.27 15.27zm15.27 -15.27l0 15.27 -15.27 0 15.27 -15.27zm0 -58.33l0 58.33 -30.54 0 0 -58.33 0 0 30.54 0zm-73.71 -43.17l0 -30.54 0 0 3.77 0.1 3.74 0.28 3.68 0.47 3.63 0.66 3.57 0.82 3.5 1.01 3.42 1.16 3.35 1.33 3.27 1.48 3.18 1.63 3.08 1.78 2.98 1.92 2.89 2.06 2.79 2.19 2.67 2.31 2.55 2.44 2.44 2.56 2.32 2.67 2.18 2.78 2.06 2.88 1.92 2.99 1.78 3.09 1.64 3.18 1.48 3.26 1.32 3.35 1.17 3.42 1 3.51 0.83 3.57 0.65 3.62 0.47 3.68 0.28 3.74 0.1 3.77 -30.54 0 -0.06 -2.22 -0.16 -2.18 -0.28 -2.15 -0.38 -2.11 -0.48 -2.07 -0.58 -2.04 -0.68 -2 -0.78 -1.95 -0.86 -1.91 -0.96 -1.86 -1.04 -1.81 -1.13 -1.75 -1.21 -1.7 -1.29 -1.64 -1.37 -1.58 -1.43 -1.5 -1.51 -1.44 -1.58 -1.37 -1.63 -1.29 -1.7 -1.21 -1.76 -1.13 -1.81 -1.04 -1.86 -0.96 -1.91 -0.86 -1.95 -0.78 -2 -0.68 -2.03 -0.58 -2.08 -0.48 -2.11 -0.38 -2.15 -0.28 -2.18 -0.16 -2.22 -0.06 0 0zm-125 -30.54l125 0 0 30.54 -125 0 0 0 0 -30.54zm-43.17 73.71l-30.54 0 0 0 0.09 -3.77 0.29 -3.74 0.47 -3.68 0.65 -3.62 0.83 -3.57 1 -3.51 1.17 -3.42 1.32 -3.35 1.48 -3.26 1.64 -3.18 1.78 -3.09 1.92 -2.99 2.05 -2.88 2.19 -2.78 2.32 -2.67 2.44 -2.56 2.55 -2.44 2.67 -2.31 2.78 -2.19 2.89 -2.06 2.99 -1.92 3.08 -1.78 3.18 -1.63 3.27 -1.48 3.34 -1.33 3.43 -1.16 3.5 -1.01 3.57 -0.82 3.63 -0.66 3.68 -0.47 3.74 -0.28 3.77 -0.1 0 30.54 -2.22 0.06 -2.18 0.16 -2.15 0.28 -2.12 0.38 -2.07 0.48 -2.03 0.58 -2 0.68 -1.95 0.78 -1.91 0.86 -1.86 0.96 -1.81 1.05 -1.76 1.12 -1.7 1.21 -1.63 1.29 -1.58 1.37 -1.51 1.44 -1.44 1.5 -1.36 1.58 -1.29 1.64 -1.21 1.7 -1.13 1.75 -1.04 1.81 -0.96 1.86 -0.86 1.91 -0.78 1.95 -0.68 2 -0.58 2.04 -0.48 2.07 -0.38 2.11 -0.28 2.15 -0.17 2.18 -0.05 2.22 0 0zm-30.54 58.33l0 -58.33 30.54 0 0 58.33 -15.27 15.27 -15.27 -15.27zm15.27 15.27l-15.27 0 0 -15.27 15.27 15.27z"/>
  </g>
 </g>
 <g id="Слой_x0020_1_9">
  <metadata id="CorelCorpID_9Corel-Layer"/>
 </g>
 <g id="Слой_x0020_1_10">
  <metadata id="CorelCorpID_10Corel-Layer"/>
 </g>
 <g id="Слой_x0020_1_11">
  <metadata id="CorelCorpID_11Corel-Layer"/>
 </g>
</svg>
