<svg xmlns="http://www.w3.org/2000/svg" xml:space="preserve" width="366px" height="354px" version="1.1" style="shape-rendering:geometricPrecision; text-rendering:geometricPrecision; image-rendering:optimizeQuality; fill-rule:evenodd; clip-rule:evenodd"
viewBox="0 0 366 354.19"
 xmlns:xlink="http://www.w3.org/1999/xlink"
 xmlns:xodm="http://www.corel.com/coreldraw/odm/2003">
 <defs>
  <style type="text/css">
   <![CDATA[
    .fil0 {fill:#336699;fill-rule:nonzero}
   ]]>
  </style>
 </defs>
 <g id="Слой_x0020_1">
  <metadata id="CorelCorpID_0Corel-Layer"/>
  <g>
   <path class="fil0" d="M205.56 145.67l-37.7 -119.7 28.61 -9.01 37.7 119.71 -14.28 19.5 -14.33 -10.5zm28.61 -9c2.48,7.89 -1.9,16.32 -9.8,18.8 -7.9,2.49 -16.32,-1.9 -18.81,-9.8l28.61 -9zm108.43 19.26l-122.71 0.24 -0.06 -30 122.72 -0.24 8.96 27.04 -8.91 2.96zm-0.05 -30c8.28,-0.01 15,6.69 15.02,14.97 0.02,8.28 -6.68,15.01 -14.97,15.03l-0.05 -30zm-108.32 76.68l99.41 -73.72 17.87 24.08 -99.42 73.73 -23.21 -7.49 5.35 -16.6zm17.86 24.09c-6.65,4.93 -16.04,3.54 -20.97,-3.11 -4.94,-6.65 -3.54,-16.05 3.11,-20.98l17.86 24.09zm14.92 112.06l-38.13 -119.55 28.57 -9.11 38.14 119.55 -23.27 16.57 -5.31 -7.46zm28.58 -9.11c2.51,7.89 -1.84,16.33 -9.73,18.84 -7.89,2.52 -16.33,-1.84 -18.85,-9.73l28.58 -9.11zm-104.44 -81.58l99.13 74.13 -17.96 24.02 -99.13 -74.13 0 -24.02 17.96 0zm-17.96 24.02c-6.64,-4.96 -7.99,-14.36 -3.03,-20.99 4.95,-6.63 14.35,-7.99 20.99,-3.03l-17.96 24.02zm-99.14 50.11l99.14 -74.13 17.96 24.02 -99.14 74.13 -23.27 -16.57 5.31 -7.45zm17.96 24.02c-6.63,4.95 -16.03,3.6 -20.99,-3.03 -4.96,-6.64 -3.6,-16.03 3.03,-20.99l17.96 24.02zm43.44 -127.01l-38.13 119.55 -28.58 -9.11 38.14 -119.55 23.22 -7.49 5.35 16.6zm-28.57 -9.11c2.52,-7.89 10.96,-12.25 18.85,-9.73 7.88,2.52 12.24,10.95 9.72,18.84l-28.57 -9.11zm-76.19 -81.21l99.41 73.72 -17.86 24.09 -99.42 -73.73 8.96 -27.04 8.91 2.96zm-17.87 24.08c-6.65,-4.93 -8.04,-14.32 -3.11,-20.97 4.93,-6.65 14.33,-8.05 20.98,-3.11l-17.87 24.08zm131.62 3.2l-122.71 -0.24 0.05 -30 122.71 0.24 14.28 19.5 -14.33 10.5zm0.05 -30c8.29,0.02 14.99,6.75 14.97,15.03 -0.02,8.28 -6.74,14.98 -15.02,14.97l0.05 -30zm51.98 -100.2l-37.7 119.7 -28.61 -9 37.7 -119.71 28.61 0 0 9.01zm-28.61 -9.01c2.49,-7.9 10.91,-12.28 18.81,-9.79 7.9,2.48 12.28,10.9 9.8,18.8l-28.61 -9.01z"/>
  </g>
 </g>
</svg>
