<?xml version="1.0" encoding="UTF-8"?>
<!DOCTYPE svg PUBLIC "-//W3C//DTD SVG 1.1//EN" "http://www.w3.org/Graphics/SVG/1.1/DTD/svg11.dtd">
<!-- Creator: CorelDRAW 2021 (64-Bit) -->
<svg xmlns="http://www.w3.org/2000/svg" xml:space="preserve" width="354px" height="354px" version="1.1" style="shape-rendering:geometricPrecision; text-rendering:geometricPrecision; image-rendering:optimizeQuality; fill-rule:evenodd; clip-rule:evenodd"
viewBox="0 0 354 354"
 xmlns:xlink="http://www.w3.org/1999/xlink"
 xmlns:xodm="http://www.corel.com/coreldraw/odm/2003">
 <defs>
  <style type="text/css">
   <![CDATA[
    .fil0 {fill:#336699}
    .fil1 {fill:#336699;fill-rule:nonzero}
   ]]>
  </style>
 </defs>
 <g id="Слой_x0020_1">
  <metadata id="CorelCorpID_0Corel-Layer"/>
 </g>
 <g id="Слой_x0020_1_0">
  <metadata id="CorelCorpID_1Corel-Layer"/>
 </g>
 <g id="Слой_x0020_1_1">
  <metadata id="CorelCorpID_2Corel-Layer"/>
  <g>
   <polygon class="fil0" points="176.2,25.1 213.07,142.17 333.08,141.93 235.85,214.03 273.15,330.95 176.2,258.46 79.25,330.95 116.55,214.03 19.33,141.93 139.33,142.17 "/>
   <path id="_1" class="fil1" d="M198.53 146.75l-36.87 -117.06 29.09 -9.17 36.86 117.07 -14.51 19.83 -14.57 -10.67zm29.08 -9.16c2.53,8.03 -1.93,16.59 -9.96,19.12 -8.03,2.53 -16.6,-1.93 -19.12,-9.96l29.08 -9.16zm105.5 19.59l-120.01 0.24 -0.06 -30.5 120.01 -0.24 9.11 27.5 -9.05 3zm-0.06 -30.5c8.42,-0.01 15.26,6.8 15.28,15.22 0.01,8.43 -6.8,15.27 -15.22,15.28l-0.06 -30.5zm-106.28 75.1l97.22 -72.09 18.17 24.49 -97.22 72.1 -23.61 -7.61 5.44 -16.89zm18.17 24.5c-6.77,5.02 -16.32,3.6 -21.33,-3.16 -5.02,-6.77 -3.6,-16.32 3.16,-21.34l18.17 24.5zm13.68 109.3l-37.29 -116.91 29.05 -9.27 37.3 116.92 -23.66 16.84 -5.4 -7.58zm29.06 -9.26c2.56,8.02 -1.87,16.6 -9.9,19.16 -8.02,2.56 -16.6,-1.87 -19.16,-9.9l29.06 -9.26zm-102.35 -80.07l96.95 72.49 -18.26 24.42 -96.95 -72.49 0 -24.42 18.26 0zm-18.26 24.42c-6.75,-5.04 -8.13,-14.6 -3.08,-21.34 5.04,-6.75 14.6,-8.13 21.34,-3.08l-18.26 24.42zm-96.95 48.07l96.95 -72.49 18.26 24.42 -96.95 72.49 -23.66 -16.84 5.4 -7.58zm18.26 24.42c-6.74,5.05 -16.3,3.67 -21.34,-3.08 -5.04,-6.74 -3.66,-16.3 3.08,-21.34l18.26 24.42zm42.7 -124.49l-37.3 116.91 -29.06 -9.26 37.3 -116.92 23.61 -7.62 5.45 16.89zm-29.06 -9.27c2.56,-8.02 11.14,-12.45 19.16,-9.9 8.03,2.56 12.46,11.14 9.9,19.17l-29.06 -9.27zm-73.61 -79.71l97.22 72.09 -18.16 24.5 -97.23 -72.1 9.12 -27.5 9.05 3.01zm-18.17 24.49c-6.76,-5.01 -8.18,-14.57 -3.16,-21.33 5.02,-6.76 14.57,-8.18 21.33,-3.16l-18.17 24.49zm129.06 3.24l-120 -0.24 0.06 -30.5 120 0.24 14.52 19.83 -14.58 10.67zm0.06 -30.5c8.42,0.01 15.24,6.86 15.22,15.28 -0.01,8.42 -6.85,15.23 -15.28,15.22l0.06 -30.5zm51.39 -97.23l-36.87 117.06 -29.09 -9.16 36.87 -117.07 29.09 0 0 9.17zm-29.09 -9.17c2.53,-8.03 11.09,-12.49 19.12,-9.96 8.03,2.53 12.49,11.09 9.97,19.13l-29.09 -9.17z"/>
  </g>
 </g>
 <g id="Слой_x0020_1_2">
  <metadata id="CorelCorpID_3Corel-Layer"/>
 </g>
</svg>
